HIERARCHY
ROOT Hips
{
	OFFSET 0.00000 0.00000 0.00000
	CHANNELS 6 Xposition Yposition Zposition Yrotation Zrotation Xrotation 
	JOINT Lumbar
	{
		OFFSET 0 0 0
		CHANNELS 3 Zrotation Xrotation Yrotation
		JOINT Neck
		{
			OFFSET 0.00 0.2701 0.00
			CHANNELS 3 Zrotation Xrotation Yrotation
			End Site
			{
				OFFSET 0.00 0.1379 0.00
			}
		}
		JOINT RightShoulder
		{
			OFFSET 0.0119 0.2289 0.1181
			CHANNELS 3 Zrotation Xrotation Yrotation
			JOINT RightElbow
			{
				OFFSET 0.00 -0.1475 0.00
				CHANNELS 2 Zrotation Yrotation
				JOINT RightWrist
				{
					OFFSET 0.00 -0.1605 0.00
					CHANNELS 2 Zrotation Xrotation
					End Site
					{
						OFFSET 0.0040 -0.1068 0.0006
					}
				}
			}
		}
		JOINT LeftShoulder
		{
			OFFSET 0.0119 0.2289 -0.1181
			CHANNELS 3 Zrotation Xrotation Yrotation
			JOINT LeftElbow
			{
				OFFSET 0.00 -0.1475 0.00
				CHANNELS 2 Zrotation Yrotation
				JOINT LeftWrist
				{
					OFFSET 0.00 -0.1605 0.00
					CHANNELS 2 Zrotation Xrotation
					End Site
					{
						OFFSET 0.0040 -0.1068 -0.0006
					}
				}
			}
		}
	}
	JOINT RightHip
	{
		OFFSET 0.0316 -0.0424 0.0458
		CHANNELS 3 Zrotation Xrotation Yrotation
		JOINT RightKnee
		{
			OFFSET 0.00 -0.2438 0.00
			CHANNELS 1 Zrotation
			JOINT RightAnkle
			{
				OFFSET 0.00 -0.2449 0.00
				CHANNELS 3 Zrotation Xrotation Yrotation
				End Site
				{
					OFFSET 0.1237 -0.0542 0.0051
				}
			}
		}
	}
	JOINT LeftHip
	{
		OFFSET 0.0316 -0.0424 -0.0458
		CHANNELS 3 Zrotation Xrotation Yrotation
		JOINT LeftKnee
		{
			OFFSET 0.00 -0.2438 0.00
			CHANNELS 1 Zrotation
			JOINT LeftAnkle
			{
				OFFSET 0.00 -0.2449 0.00
				CHANNELS 3 Zrotation Xrotation Yrotation
				End Site
				{
					OFFSET 0.1237 -0.0542 -0.0051
				}
			}
		}
	}
}
MOTION
Frames: 28
Frame Time: 0.02
-0.90986 0.55366 -0.51624 557.29437 0 -4.72574 -58.06926 4.85821 -1.90196 -59.15416 7.77925 -27.05769 120.03195 15.23191 55.30636 22.71657 89.68031 1.48995 0.71285 69.38871 68.64132 24.16542 11.5551 -106.77382 -31.75693 6.51164 16.95116 3.49446 -8.24165 -20.70894 0.39847 -1.69904 -2.12827 21.05907 15.55601 7.09021 -28.36317 12.06798 0.76845 -0.77058
-0.91114 0.55361 -0.51626 557.64126 0 -4.68355 -58.06926 4.56237 2.50281 -60.70998 12.66196 -28.83213 122.64304 16.96393 55.88227 20.80026 89.07604 0.71341 0.5821 75.45519 69.9845 30.49812 10.89436 -110.29687 -30.23556 7.44421 17.02214 3.40009 -8.45124 -21.16808 0.66097 -1.81352 -2.29453 20.44767 15.14987 6.33732 -26.97842 10.88983 1.24876 0.37375
-0.91224 0.55345 -0.51567 557.74754 0 -4.62514 -58.06927 4.07774 9.63173 -61.78101 18.74347 -28.45483 125.04925 15.92092 55.55476 17.76696 87.92572 -0.9557 0.19641 84.28121 67.40544 36.24708 9.90314 -114.48506 -27.19448 8.82168 17.18959 3.2594 -8.65241 -21.7352 0.93195 -1.9255 -2.29651 19.69789 14.66086 5.16654 -25.54404 8.98318 1.95595 2.00054
-0.91343 0.55334 -0.51534 557.98043 0 -4.578 -58.06927 3.69744 15.30936 -63.05137 24.11657 -29.0993 127.48139 16.22456 55.53191 15.31981 87.04062 -2.15352 -0.06982 91.70135 66.72294 42.14107 9.09961 -118.1803 -24.87808 9.97461 17.30474 3.14012 -8.85869 -22.24394 1.19811 -2.0385 -2.38085 19.03647 14.22014 4.20918 -24.17417 7.4634 2.53445 3.35001
-0.91461 0.55322 -0.51504 558.14539 0 -4.51553 -58.06927 3.24145 21.82405 -64.40759 30.1782 -29.66998 130.16761 16.30719 55.9109 12.55906 86.09079 -3.60834 -0.34789 99.71488 65.72795 48.56505 8.15667 -122.55067 -22.3944 11.24346 17.45333 3.01847 -9.05442 -22.78983 1.46872 -2.15383 -2.43822 18.26208 13.72946 3.15427 -22.61212 5.72129 3.22219 4.94907
-0.91576 0.5531 -0.51455 558.39212 0 -4.481 -58.06927 2.89712 27.27836 -65.47003 35.09261 -29.81681 132.29157 16.10965 55.28373 10.18073 85.14749 -4.75004 -0.66167 107.15173 64.35579 53.75185 7.41697 -125.69602 -19.9032 12.36326 17.55506 2.89125 -9.27337 -23.28301 1.73144 -2.26246 -2.50908 17.69075 13.32531 2.20454 -21.44217 4.26465 3.73636 6.1418
-0.91687 0.55302 -0.51369 558.93137 0 -4.52385 -58.06927 2.90922 28.98762 -65.84986 36.52793 -29.61932 132.85846 16.16791 51.74501 9.1143 84.30228 -4.77801 -1.03046 112.50057 63.30154 55.48338 7.33662 -125.63943 -17.81746 13.02579 17.51604 2.75796 -9.54254 -23.62659 1.97618 -2.36003 -2.67609 17.73255 13.17777 1.62319 -21.39533 3.76878 3.70907 6.08703
-0.91795 0.55294 -0.51265 559.5588 0 -4.59587 -58.06927 3.03916 29.56771 -65.94933 36.77053 -29.00785 132.87936 15.96651 47.2875 8.47148 83.48967 -4.46787 -1.42386 117.15131 61.91792 56.0124 7.46664 -124.29654 -15.77347 13.51022 17.42483 2.6212 -9.83858 -23.90992 2.21156 -2.44947 -2.85823 17.98129 13.12128 1.16536 -21.74275 3.58449 3.50049 5.60808
-0.91905 0.55287 -0.51169 560.14053 0 -4.65672 -58.06927 3.11403 30.77455 -66.17125 37.57131 -28.36938 133.19067 15.62926 43.49163 7.64363 82.69685 -4.33565 -1.79406 122.01055 60.39326 57.21348 7.48637 -123.32658 -13.67491 14.0308 17.34983 2.48737 -10.13372 -24.20667 2.44744 -2.53801 -3.02074 18.12378 13.02557 0.66734 -21.89272 3.25932 3.3787 5.32655
-0.92014 0.55276 -0.51074 560.73907 0 -4.70815 -58.06927 3.19028 31.609 -66.39753 38.3467 -28.53983 133.31957 16.2385 38.65557 6.74663 81.74347 -4.13348 -2.22271 127.41614 59.92699 57.88975 7.55639 -123.22623 -11.66078 14.75087 17.3094 2.34591 -10.38202 -24.5657 2.69966 -2.64599 -3.23179 18.31174 12.91798 0.09057 -22.11481 2.90583 3.2453 5.0393
-0.92124 0.55273 -0.50972 561.32492 0 -4.78641 -58.06927 3.2922 32.89927 -66.55397 38.87492 -26.9872 133.69689 14.88859 35.75201 6.1074 81.13386 -3.98309 -2.53352 131.49221 57.27203 59.34964 7.57651 -121.05645 -9.51609 15.0141 17.18385 2.22049 -10.73281 -24.77977 2.91528 -2.71147 -3.347 18.45733 12.85757 -0.29125 -22.28477 2.6949 3.09131 4.66069
-0.92239 0.55292 -0.50854 561.87004 0 -4.93087 -58.06927 3.45348 35.85393 -66.59289 39.0159 -20.5044 134.9351 7.8709 38.65492 6.09294 81.514 -4.0725 -2.50011 131.9692 48.29149 63.53453 7.40293 -113.00979 -6.87637 13.99677 16.8313 2.13707 -11.37378 -24.60394 3.03395 -2.66231 -3.19842 18.42433 12.90835 -0.12904 -22.18284 2.80333 2.91263 4.09811
-0.92355 0.55319 -0.50728 562.39756 0 -5.10142 -58.06927 3.63434 39.26862 -66.57237 38.94242 -12.36273 136.4354 -1.03673 43.49431 6.32588 82.23215 -4.21871 -2.34826 131.13608 37.20547 68.50032 7.17448 -103.00825 -4.13473 12.53463 16.3954 2.0706 -12.11439 -24.28475 3.11578 -2.57057 -2.95297 18.34418 13.00327 0.22116 -22.02076 3.04777 2.72045 3.46197
-0.92471 0.55342 -0.50606 562.92389 0 -5.26074 -58.06927 3.79572 42.37416 -66.57714 38.95905 -5.17129 137.78994 -8.85348 47.28937 6.44003 82.76713 -4.32514 -2.25787 130.95489 27.34202 72.9392 6.97546 -94.21546 -1.52914 11.3157 16.00016 1.99878 -12.80052 -24.03329 3.21321 -2.49782 -2.74951 18.29368 13.07632 0.46299 -21.90748 3.23227 2.54151 2.88087
-0.92586 0.55367 -0.50485 563.49193 0 -5.4189 -58.06927 4.00538 45.86437 -66.57918 38.96667 2.86209 139.23847 -17.65672 51.74066 6.59446 83.42974 -4.47897 -2.1367 130.5162 16.34771 78.07108 6.76388 -84.03758 1.45457 9.92 15.59099 1.91735 -13.52673 -23.76821 3.31495 -2.42617 -2.55446 18.21612 13.16019 0.80295 -21.71836 3.41915 2.32709 2.19584
-0.92702 0.55389 -0.50359 563.96779 0 -5.58467 -58.06927 4.1181 48.67728 -66.57637 38.9565 9.5336 140.5598 -24.85501 55.30299 6.71917 83.90384 -4.55227 -2.05061 130.30669 7.2074 81.94935 6.56363 -76.28222 3.67559 8.78595 15.19225 1.85942 -14.19239 -23.49909 3.3993 -2.34237 -2.31945 18.18039 13.23076 0.98506 -21.66647 3.62956 2.18481 1.71305
-0.92818 0.55404 -0.5022 564.19373 0 -5.77021 -58.06927 3.95424 49.50526 -66.57793 38.96207 12.0011 141.47481 -27.11154 55.89141 6.69422 83.79891 -4.38619 -2.09466 131.09046 3.76603 82.24859 6.40056 -75.83008 3.75987 8.50903 14.83803 1.86732 -14.66924 -23.2467 3.44276 -2.23429 -1.99223 18.2765 13.25399 0.65506 -22.01726 3.86989 2.2532 1.82734
-0.92934 0.55417 -0.50075 564.32721 0 -5.96129 -58.06927 3.69261 49.64125 -66.57753 38.96069 13.04419 142.2533 -27.69403 55.53142 6.63017 83.48906 -4.13944 -2.1771 132.14588 2.25507 81.23159 6.2517 -77.86524 3.07415 8.50561 14.49835 1.89733 -15.08077 -22.9969 3.47039 -2.1158 -1.62948 18.41431 13.26169 0.16451 -22.50424 4.12785 2.39406 2.14602
-0.9305 0.5543 -0.49934 564.50215 0 -6.14646 -58.06927 3.47752 50.10122 -66.57741 38.96022 14.76336 143.09187 -29.07366 55.64036 6.58658 83.25565 -3.93307 -2.23907 133.05394 -0.18202 80.8004 6.09959 -78.67831 2.74481 8.3625 14.15529 1.91397 -15.52066 -22.75083 3.50659 -2.0027 -1.2861 18.52904 13.27615 -0.23294 -22.92137 4.37765 2.49727 2.35958
-0.93168 0.55444 -0.49791 564.67816 0 -6.34732 -58.06927 3.25315 50.53762 -66.57761 38.96096 16.42468 143.94982 -30.36966 55.65683 6.54035 83.10001 -3.71215 -2.30989 134.01663 -2.49405 80.53003 5.92996 -79.80656 2.39192 8.27382 13.79551 1.94539 -15.9709 -22.47867 3.53576 -1.88486 -0.92424 18.66019 13.29411 -0.70765 -23.37156 4.63383 2.61971 2.6216
-0.93281 0.55456 -0.49649 564.83111 0 -6.5159 -58.06927 3.02603 50.85146 -66.5775 38.96055 17.83987 144.72875 -31.41297 55.61477 6.48727 82.73495 -3.50248 -2.3727 134.9474 -4.57137 79.49907 5.80361 -80.8984 1.90376 8.13618 13.47529 1.95083 -16.38118 -22.26375 3.57618 -1.77558 -0.59559 18.76698 13.29966 -1.06343 -23.78434 4.87809 2.71961 2.83269
-0.93382 0.55465 -0.49508 564.93466 0 -6.59865 -58.06927 2.80288 51.00767 -66.57753 38.96067 18.97027 145.3466 -32.1966 55.64152 6.42137 81.79221 -3.337 -2.40626 135.72726 -6.53973 77.60537 5.77299 -81.26187 1.23156 7.8563 13.25988 1.88074 -16.70996 -22.20382 3.65247 -1.68756 -0.35146 18.80157 13.28154 -1.04099 -24.07409 5.09246 2.73902 2.85051
-0.93479 0.55473 -0.49368 565.01956 0 -6.64764 -58.06927 2.58248 51.06007 -66.57754 38.9607 19.88421 145.88357 -32.76821 55.63262 6.34927 80.6537 -3.18669 -2.43053 136.47033 -8.31481 74.843 5.7914 -81.51697 0.4498 7.511 13.08447 1.78327 -16.99777 -22.20264 3.74053 -1.60966 -0.14531 18.80931 13.24986 -0.89649 -24.31913 5.29209 2.73355 2.81122
-0.93577 0.55482 -0.49228 565.11892 0 -6.70898 -58.06927 2.36888 51.1503 -66.57753 38.96065 20.85949 146.44127 -33.40937 55.63161 6.28104 79.63519 -3.03344 -2.45828 137.23611 -10.12456 71.84106 5.79849 -81.84364 -0.284 7.15584 12.89162 1.69726 -17.29549 -22.17684 3.82291 -1.53056 0.06719 18.82625 13.21979 -0.81542 -24.57609 5.49298 2.73977 2.79979
-0.93676 0.55488 -0.49084 565.19092 0 -6.78348 -58.06927 2.11812 51.25619 -66.57754 38.96068 21.94596 147.06365 -34.10899 55.63439 6.20725 78.47734 -2.86043 -2.49074 137.9904 -12.09508 71.36465 5.75186 -82.15938 -1.03989 6.968 12.69573 1.61646 -17.62816 -22.14206 3.90654 -1.43671 0.32657 18.85778 13.2088 -0.70523 -24.87357 5.7177 2.74642 2.78611
-0.93772 0.55499 -0.48949 565.31527 0 -6.82207 -58.06927 1.94638 51.31367 -66.57754 38.96068 22.76344 147.53182 -34.65494 55.63222 6.14395 77.56761 -2.73357 -2.51027 138.75004 -13.70687 65.57305 5.83849 -82.44273 -1.762 6.42402 12.51597 1.5177 -17.87866 -22.14019 3.99006 -1.37613 0.47945 18.85139 13.1546 -0.62591 -25.07383 5.88882 2.74594 2.76253
-0.93863 0.55519 -0.48839 565.60109 0 -6.77328 -58.06927 1.99551 51.26621 -66.57754 38.96068 22.93213 147.61163 -34.85982 55.63287 6.11166 77.37558 -2.72794 -2.50011 139.58922 -14.40522 44.15965 6.19248 -82.62958 -2.39362 4.8129 12.36814 1.37816 -17.91644 -22.21462 4.0745 -1.40491 0.34229 18.75218 12.98814 -0.65002 -25.02003 5.91726 2.72637 2.71057
-0.93952 0.55542 -0.48738 565.93825 0 -6.68888 -58.06927 2.12399 51.17637 -66.57754 38.96068 22.83696 147.53658 -34.91963 55.63287 6.09022 77.44327 -2.7691 -2.47635 140.42317 -14.75311 17.64524 6.69242 -82.78053 -2.97871 2.86215 12.23637 1.22073 -17.87243 -22.32138 4.15745 -1.46673 0.10047 18.6147 12.77812 -0.7106 -24.86888 5.89194 2.70116 2.65227
